# xmcd
#
# Track frame offsets:
#	150
#	14422
#	26852
#	41142
#	55272
#	68212
#	80125
#	94810
#	108302
#	122937
#	134310
#	149782
#	164602
#	177015
#	190742
#	203922
#	217975
#	231052
#
# Disc length: 3267
#
# Revision: 2
# Processed by: cddbd v1.5.1PL0 Copyright (c) Steve Scherf et al.
# Submitted via: audiograbber 1.81.03
# Normalized: r1:DSETVAR1
#
DISCID=100cc112
DTITLE=Various Artist - Sentimental Journey The 40's CD3
DYEAR=1900
DGENRE=Blues
TTITLE0=Bing Crosby and The Andrews Sisters - South America, Take It Away
TTITLE1=Ella Fitzgerald - Baby, It's Cold Outside
TTITLE2=Dick Haymes - It Might As Well Be Spring
TTITLE3=The Ink Spots - Don't Get Around Much Any More
TTITLE4=Red Foley - Cincinnati Dancing Pig
TTITLE5=Russ MorganOrchestra - Cruising Down The River
TTITLE6=Guy Lombardo Orchestra Don Rodney - Everywhere You Go
TTITLE7=The Andrews Sisters and Danny Kaye - Woody Woodpecker
TTITLE8=Jimmy Dorsay Orchestra - Yours
TTITLE9=The Mills Brothers - Across The Alley From The Alamo
TTITLE10=Louis Amstrong - La Vie En Rose
TTITLE11=Peggy Lee - Where Can I Go Without You
TTITLE12=The Merry Macs - Mairzy Doats
TTITLE13=Dick Haymes and Helen O'Connell - I'm Always Chasing Rainbows
TTITLE14=Bin Crosby and Gary Crosby - Sam's Song
TTITLE15=Louis Jordan and His Timpany Five - 't Aint Nobody Here But Us Chickens
TTITLE16=Judy Garland - The Trolley Song
TTITLE17=Bing Crosby - Now Is The Hour
EXTD=
EXTT0=
EXTT1=
EXTT2=
EXTT3=
EXTT4=
EXTT5=
EXTT6=
EXTT7=
EXTT8=
EXTT9=
EXTT10=
EXTT11=
EXTT12=
EXTT13=
EXTT14=
EXTT15=
EXTT16=
EXTT17=
PLAYORDER=
